{"title":"Big.Fat.Gypsy.Gangster.2011.DVDRip.XViD-DTRG","uid":6694107,"size":1646195208,"categoryP":"video","categoryS":"movies","magnet":"?xt=urn:btih:32d99e6088013ff47aa9669455486064a9a867df&amp;dn=Big.Fat.Gypsy.Gangster.2011.DVDRip.XViD-DTRG&amp;tr=udp%3A%2F%2Ftracker.openbittorrent.com%3A80&amp;tr=udp%3A%2F%2Fopen.demonii.com%3A1337&amp;tr=udp%3A%2F%2Ftracker.coppersurfer.tk%3A6969&amp;tr=udp%3A%2F%2Fexodus.desync.com%3A6969","seeders":0,"leechers":1,"uploader":".Dude.","files":1,"time":1316703378,"description":"Big Fat Gypsy Gangster 2011 DVDRip XViD DTRG\n &lt;a href=&quot;\nhttp://www.imdb.com/title/tt1582196/&quot; rel=&quot;nofollow&quot; target=&quot;_NEW&quot;&gt;\nhttp://www.imdb.com/title/tt1582196/&lt;/a&gt;\n &lt;a href=&quot;\nhttp://www.postimg.com/image/48000/photo-47624.jpg&quot; rel=&quot;nofollow&quot; target=&quot;_NEW&quot;&gt;\nhttp://www.postimg.com/image/48000/photo-47624.jpg&lt;/a&gt;\n\nFormat                           : AVI\nFormat/Info                      : Audio Video Interleave\nFile size                        : 1.53 GiB\nDuration                         : 1h 28mn\nOverall bit rate                 : 2 470 Kbps\nWriting library                  : VirtualDub build 32842/release\n\nVideo\nID                               : 0\nFormat                           : MPEG-4 Visual\nFormat profile                   : Advanced Simple@L5\nFormat settings, BVOP            : 2\nFormat settings, QPel            : No\nFormat settings, GMC             : No warppoints\nFormat settings, Matrix          : Default (H.263)\nMuxing mode                      : Packed bitstream\nCodec ID                         : XVID\nCodec ID/Hint                    : XviD\nDuration                         : 1h 28mn\nBit rate                         : 2 012 Kbps\nWidth                            : 714 pixels\nHeight                           : 400 pixels\nDisplay aspect ratio             : 16:9\nFrame rate                       : 25.000 fps\nColor space                      : YUV\nChroma subsampling               : 4:2:0\nBit depth                        : 8 bits\nScan type                        : Progressive\nCompression mode                 : Lossy\nBits/(Pixel*Frame)               : 0.282\nStream size                      : 1.25 GiB (81%)\nWriting library                  : XviD 64\n\nAudio\nID                               : 1\nFormat                           : AC-3\nFormat/Info                      : Audio Coding 3\nMode extension                   : CM (complete main)\nCodec ID                         : 2000\nDuration                         : 1h 28mn\nBit rate mode                    : Constant\nBit rate                         : 448 Kbps\nChannel(s)                       : 6 channels\nChannel positions                : Front: L C R, Side: L R, LFE\nSampling rate                    : 48.0 KHz\nBit depth                        : 16 bits\nCompression mode                 : Lossy\nStream size                      : 285 MiB (18%)\nAlignment                        : Aligned on interleaves\nInterleave, duration             : 40 ms (1.00 video frame)\nInterleave, preload duration     : 512 ms\n\nScreens: &lt;a href=&quot;\nhttp://images.oneddl.com/images/mh8iw5gf2zww8sfls6yk.png&quot; rel=&quot;nofollow&quot; target=&quot;_NEW&quot;&gt;\nhttp://images.oneddl.com/images/mh8iw5gf2zww8sfls6yk.png&lt;/a&gt; &lt;a href=&quot;\nhttp://images.oneddl.com/images/d4gsyb87dx23zcthc0ol.png&quot; rel=&quot;nofollow&quot; target=&quot;_NEW&quot;&gt;\nhttp://images.oneddl.com/images/d4gsyb87dx23zcthc0ol.png&lt;/a&gt; &lt;a href=&quot;\nhttp://images.oneddl.com/images/c01c0cd84a68jt1qz42c.png&quot; rel=&quot;nofollow&quot; target=&quot;_NEW&quot;&gt;\nhttp://images.oneddl.com/images/c01c0cd84a68jt1qz42c.png&lt;/a&gt; &lt;a href=&quot;\nhttp://images.oneddl.com/images/x87if6ddnc2lsjfo1ok.png&quot; rel=&quot;nofollow&quot; target=&quot;_NEW&quot;&gt;\nhttp://images.oneddl.com/images/x87if6ddnc2lsjfo1ok.png&lt;/a&gt;\n\nSample: &lt;a href=&quot;\nhttp://www.uploadking.com/XDJ25WTDMC&quot; rel=&quot;nofollow&quot; target=&quot;_NEW&quot;&gt;\nhttp://www.uploadking.com/XDJ25WTDMC&lt;/a&gt;\n\n ~ Seed 4 others,Others would seed 4 u ~\n         Be a Gentleman!!\n\n    ______            ______   _______    \n   (  __  \\ |\\     /|(  __  \\ (  ____ \\   \n   | (  \\  )| )   ( || (  \\  )| (    \\/   \n   | |   ) || |   | || |   ) || (__       \n   | |   | || |   | || |   | ||  __)      \n   | |   ) || |   | || |   ) || (         \n _ | (__/  )| (___) || (__/  )| (____/\\ _ \n(_)(______/ (_______)(______/ (_______/(_)\n\n\nAny comments would b appreciated.\nDo rate the torrent quality by giving a +1/-1.\n\nYou can check my other uploads here: &lt;a href=&quot;\nhttp://thepiratebay.se/user/.Dude./&quot; rel=&quot;nofollow&quot; target=&quot;_NEW&quot;&gt;\nhttp://thepiratebay.se/user/.Dude./&lt;/a&gt;\n\nA simple THANKS goes a long way... :-)\nIt would just take a few seconds to post a thanks and wud would appreciate me to upload even more gr8 torrents.\n","torrent":{"xt":"urn:btih:32d99e6088013ff47aa9669455486064a9a867df","amp;dn":"Big.Fat.Gypsy.Gangster.2011.DVDRip.XViD-DTRG","amp;tr":["udp%3A%2F%2Ftracker.openbittorrent.com%3A80","udp%3A%2F%2Fopen.demonii.com%3A1337","udp%3A%2F%2Ftracker.coppersurfer.tk%3A6969","udp%3A%2F%2Fexodus.desync.com%3A6969"],"infoHash":"32d99e6088013ff47aa9669455486064a9a867df","infoHashBuffer":{"type":"Buffer","data":[50,217,158,96,136,1,63,244,122,169,102,148,85,72,96,100,169,168,103,223]},"announce":[],"urlList":[]}}